<svg width="160" height="27" viewBox="0 0 160 27" fill="none" xmlns="http://www.w3.org/2000/svg">
<path d="M8.5 5.925C10.1333 5.925 11.4333 6.45833 12.4 7.525C13.3833 8.575 13.875 10.025 13.875 11.875V20.025H9.625V12.45C9.625 11.5167 9.38333 10.7917 8.9 10.275C8.41667 9.75833 7.76667 9.5 6.95 9.5C6.13333 9.5 5.48333 9.75833 5 10.275C4.51667 10.7917 4.275 11.5167 4.275 12.45V20.025H0V6.075H4.275V7.925C4.70833 7.30833 5.29167 6.825 6.025 6.475C6.75833 6.10833 7.58333 5.925 8.5 5.925Z" fill="white"/>
<path d="M18.9957 4.625C18.2457 4.625 17.629 4.40833 17.1457 3.975C16.679 3.525 16.4457 2.975 16.4457 2.325C16.4457 1.65833 16.679 1.10833 17.1457 0.675C17.629 0.225 18.2457 0 18.9957 0C19.729 0 20.329 0.225 20.7957 0.675C21.279 1.10833 21.5207 1.65833 21.5207 2.325C21.5207 2.975 21.279 3.525 20.7957 3.975C20.329 4.40833 19.729 4.625 18.9957 4.625ZM21.1207 6.075V20.025H16.8457V6.075H21.1207Z" fill="white"/>
<path d="M29.5188 5.875C30.5021 5.875 31.3604 6.075 32.0938 6.475C32.8438 6.875 33.4188 7.4 33.8188 8.05V6.075H38.0938V20C38.0938 21.2833 37.8354 22.4417 37.3188 23.475C36.8188 24.525 36.0438 25.3583 34.9938 25.975C33.9604 26.5917 32.6688 26.9 31.1188 26.9C29.0521 26.9 27.3771 26.4083 26.0938 25.425C24.8104 24.4583 24.0771 23.1417 23.8938 21.475H28.1188C28.2521 22.0083 28.5688 22.425 29.0688 22.725C29.5688 23.0417 30.1854 23.2 30.9188 23.2C31.8021 23.2 32.5021 22.9417 33.0188 22.425C33.5521 21.925 33.8188 21.1167 33.8188 20V18.025C33.4021 18.675 32.8271 19.2083 32.0938 19.625C31.3604 20.025 30.5021 20.225 29.5188 20.225C28.3688 20.225 27.3271 19.9333 26.3938 19.35C25.4604 18.75 24.7188 17.9083 24.1688 16.825C23.6354 15.725 23.3688 14.4583 23.3688 13.025C23.3688 11.5917 23.6354 10.3333 24.1688 9.25C24.7188 8.16667 25.4604 7.33333 26.3938 6.75C27.3271 6.16667 28.3688 5.875 29.5188 5.875ZM33.8188 13.05C33.8188 11.9833 33.5188 11.1417 32.9188 10.525C32.3354 9.90833 31.6187 9.6 30.7687 9.6C29.9187 9.6 29.1938 9.90833 28.5938 10.525C28.0104 11.125 27.7188 11.9583 27.7188 13.025C27.7188 14.0917 28.0104 14.9417 28.5938 15.575C29.1938 16.1917 29.9187 16.5 30.7687 16.5C31.6187 16.5 32.3354 16.1917 32.9188 15.575C33.5188 14.9583 33.8188 14.1167 33.8188 13.05Z" fill="white"/>
<path d="M49.7615 5.925C51.3615 5.925 52.6449 6.45833 53.6115 7.525C54.5782 8.575 55.0615 10.025 55.0615 11.875V20.025H50.8115V12.45C50.8115 11.5167 50.5699 10.7917 50.0865 10.275C49.6032 9.75833 48.9532 9.5 48.1365 9.5C47.3199 9.5 46.6699 9.75833 46.1865 10.275C45.7032 10.7917 45.4615 11.5167 45.4615 12.45V20.025H41.1865V1.525H45.4615V7.95C45.8949 7.33333 46.4865 6.84167 47.2365 6.475C47.9865 6.10833 48.8282 5.925 49.7615 5.925Z" fill="white"/>
<path d="M65.8072 16.4V20.025H63.6322C62.0822 20.025 60.8739 19.65 60.0072 18.9C59.1406 18.1333 58.7072 16.8917 58.7072 15.175V9.625H57.0072V6.075H58.7072V2.675H62.9822V6.075H65.7822V9.625H62.9822V15.225C62.9822 15.6417 63.0822 15.9417 63.2822 16.125C63.4822 16.3083 63.8156 16.4 64.2822 16.4H65.8072Z" fill="white"/>
<path d="M93.5113 6.075L89.7363 20.025H85.0113L82.8113 10.975L80.5363 20.025H75.8363L72.0363 6.075H76.3113L78.2863 16.05L80.6363 6.075H85.1613L87.5363 16L89.4863 6.075H93.5113Z" fill="white"/>
<path d="M94.2916 13.025C94.2916 11.5917 94.5583 10.3333 95.0916 9.25C95.6416 8.16667 96.3833 7.33333 97.3166 6.75C98.2499 6.16667 99.2916 5.875 100.442 5.875C101.425 5.875 102.283 6.075 103.017 6.475C103.767 6.875 104.342 7.4 104.742 8.05V6.075H109.017V20.025H104.742V18.05C104.325 18.7 103.742 19.225 102.992 19.625C102.258 20.025 101.4 20.225 100.417 20.225C99.2833 20.225 98.2499 19.9333 97.3166 19.35C96.3833 18.75 95.6416 17.9083 95.0916 16.825C94.5583 15.725 94.2916 14.4583 94.2916 13.025ZM104.742 13.05C104.742 11.9833 104.442 11.1417 103.842 10.525C103.258 9.90833 102.542 9.6 101.692 9.6C100.842 9.6 100.117 9.90833 99.5166 10.525C98.9333 11.125 98.6416 11.9583 98.6416 13.025C98.6416 14.0917 98.9333 14.9417 99.5166 15.575C100.117 16.1917 100.842 16.5 101.692 16.5C102.542 16.5 103.258 16.1917 103.842 15.575C104.442 14.9583 104.742 14.1167 104.742 13.05Z" fill="white"/>
<path d="M119.884 16.4V20.025H117.709C116.159 20.025 114.951 19.65 114.084 18.9C113.218 18.1333 112.784 16.8917 112.784 15.175V9.625H111.084V6.075H112.784V2.675H117.059V6.075H119.859V9.625H117.059V15.225C117.059 15.6417 117.159 15.9417 117.359 16.125C117.559 16.3083 117.893 16.4 118.359 16.4H119.884Z" fill="white"/>
<path d="M121.416 13.05C121.416 11.6 121.707 10.3333 122.291 9.25C122.891 8.16667 123.716 7.33333 124.766 6.75C125.832 6.16667 127.049 5.875 128.416 5.875C130.166 5.875 131.624 6.33333 132.791 7.25C133.974 8.16667 134.749 9.45833 135.116 11.125H130.566C130.182 10.0583 129.441 9.525 128.341 9.525C127.557 9.525 126.932 9.83333 126.466 10.45C125.999 11.05 125.766 11.9167 125.766 13.05C125.766 14.1833 125.999 15.0583 126.466 15.675C126.932 16.275 127.557 16.575 128.341 16.575C129.441 16.575 130.182 16.0417 130.566 14.975H135.116C134.749 16.6083 133.974 17.8917 132.791 18.825C131.607 19.7583 130.149 20.225 128.416 20.225C127.049 20.225 125.832 19.9333 124.766 19.35C123.716 18.7667 122.891 17.9333 122.291 16.85C121.707 15.7667 121.416 14.5 121.416 13.05Z" fill="white"/>
<path d="M145.977 5.925C147.577 5.925 148.861 6.45833 149.827 7.525C150.794 8.575 151.277 10.025 151.277 11.875V20.025H147.027V12.45C147.027 11.5167 146.786 10.7917 146.302 10.275C145.819 9.75833 145.169 9.5 144.352 9.5C143.536 9.5 142.886 9.75833 142.402 10.275C141.919 10.7917 141.677 11.5167 141.677 12.45V20.025H137.402V1.525H141.677V7.95C142.111 7.33333 142.702 6.84167 143.452 6.475C144.202 6.10833 145.044 5.925 145.977 5.925Z" fill="white"/>
<path d="M157 20.2247C156.25 20.2247 155.633 20.008 155.15 19.5747C154.683 19.1247 154.45 18.5747 154.45 17.9247C154.45 17.258 154.683 16.6997 155.15 16.2497C155.633 15.7997 156.25 15.5747 157 15.5747C157.733 15.5747 158.333 15.7997 158.8 16.2497C159.283 16.6997 159.525 17.258 159.525 17.9247C159.525 18.5747 159.283 19.1247 158.8 19.5747C158.333 20.008 157.733 20.2247 157 20.2247Z" fill="#FFB803"/>
</svg>
